<svg xmlns="http://www.w3.org/2000/svg" viewBox="0 0 1920 1080" role="img" aria-label="David act 1 Ch.1 · Anointed background"><metadata>{&quot;story&quot;:&quot;David&quot;,&quot;act&quot;:1,&quot;chapter&quot;:&quot;Ch.1 · Anointed&quot;,&quot;scene&quot;:&quot;C&quot;,&quot;layer&quot;:&quot;background&quot;,&quot;artDirection&quot;:&quot;Samuel anoints the youngest son of Jesse, a shepherd boy of Bethlehem, while his elder brothers watch in surprise. Stage: a Bethlehem hillside at golden hour, sheep around, oil poured on a ruddy boy&amp;#x27;s head; a horn of oil, distant town rooftops; warm ochre light.&quot;,&quot;materials&quot;:[&quot;assets/materials/grass-tufts.svg&quot;],&quot;seed&quot;:1}</metadata><defs><linearGradient id="davidSky" x2="0" y2="1"><stop stop-color="#41402d"/><stop offset="1" stop-color="#dfad69"/></linearGradient><radialGradient id="davidGlow"><stop stop-color="#e9b65d" stop-opacity=".25"/><stop offset="1" stop-color="#e9b65d" stop-opacity="0"/></radialGradient><pattern id="act-material" width="72" height="72" patternUnits="userSpaceOnUse"><path d="M8 56Q12 36 27 17Q29 37 8 56M29 64Q32 42 50 25Q50 46 29 64" fill="#53623a" opacity=".6"/></pattern></defs><rect width="1920" height="1080" fill="url(#davidSky)"/><circle cx="1510" cy="250" r="74" fill="#e9b65d" opacity=".62"/><path d="M0 720 L124.80000000000001 595.2995428653667 L240 729.678044958273 L364.8 556.9084410999203 L480 738.3753042912576 L604.8 593.9495617391076 L720 726.4450735680293 L844.8 538.9577105840435 L960 734.8258306412026 L1084.8 461.95008747582324 L1200 741.538701010868 L1324.8 445.17367362056393 L1440 754.931373099098 L1564.8 575.479660694953 L1680 721.0939423018135 L1804.8 544.6287532582646 L1920 723.6331163090654 V1080 H0Z" fill="#7b6949"/><path d="M0 780Q440 690 900 790T1920 760V1080H0Z" fill="#2e3828"/><g fill="#877251"><path d="M300 690V560h110v130Z"/><path d="M650 690V605h110v130Z"/><path d="M1260 690V560h110v130Z"/><path d="M1530 690V605h110v130Z"/></g><ellipse cx="960" cy="680" rx="920" ry="400" fill="url(#davidGlow)"/><path d="M0 950Q450 875 920 950T1920 925V1080H0Z" fill="url(#act-material)" opacity=".13"/></svg>
