<svg xmlns="http://www.w3.org/2000/svg" viewBox="0 0 1920 1080" role="img" aria-label="Esther act 4 Ch.4 · Haman’s Decree foreground"><metadata>{&quot;story&quot;:&quot;Esther&quot;,&quot;act&quot;:4,&quot;chapter&quot;:&quot;Ch.4 · Haman’s Decree&quot;,&quot;scene&quot;:&quot;B&quot;,&quot;layer&quot;:&quot;foreground&quot;,&quot;artDirection&quot;:&quot;Haman the Agagite persuades the king to destroy the Jews; the decree rides out to every province. Stage: a great hall, Haman in high honour, the sealed parchment on a table; couriers galloping past a map of the empire; cold shadow and a rising drum of hoofbeats.&quot;,&quot;materials&quot;:[&quot;assets/materials/mosaic-chips.svg&quot;,&quot;assets/materials/hammered_gold-hammered.svg&quot;,&quot;assets/materials/fabric_weave-basket.svg&quot;,&quot;assets/materials/fabric_dots-scatterMix.svg&quot;,&quot;assets/materials/stone-flagstone.svg&quot;,&quot;assets/materials/wood_dark-plank.svg&quot;],&quot;seed&quot;:1}</metadata><path d="M0 1030Q480 940 950 1010T1920 970V1080H0Z" fill="#201a20"/><path d="M0 1080V0H48V1080ZM1872 1080V0H1920V1080Z" fill="#141217" opacity=".4"/><path d="M0 1080V1000L145 920 290 980 390 1080ZM1530 1080L1660 970 1800 900 1920 980V1080Z" fill="#3a3031" stroke="#100f14" stroke-width="9"/><g fill="#34332e" stroke="#100f14" stroke-width="8"><path d="M0 1080V930Q90 850 180 930V1080ZM1740 1080V930Q1830 850 1920 930V1080Z"/></g><g transform="translate(960 920) scale(1.1) rotate(-7)" stroke="#100f14" stroke-width="10"><rect x="-210" y="-160" width="420" height="320" rx="12" fill="#dbc99e"/><path d="M-150-75H145M-150-15H125M-150 45H85" stroke="#80674d" stroke-width="12"/></g><path d="M0 1030H1920" stroke="#d6a456" stroke-width="22"/><g fill="#6b534d" stroke="#100f14" stroke-width="8"><path d="M230 920V800H330V920Z"/><path d="M470 920V800H570V920Z"/><path d="M1450 920V800H1550V920Z"/><path d="M1690 920V800H1790V920Z"/></g></svg>
