<svg xmlns="http://www.w3.org/2000/svg" width="119" height="119" viewBox="0 0 119 119"><defs><pattern id="p_fabric_tartan_sett" width="119" height="119" patternUnits="userSpaceOnUse"><rect width="119" height="119" fill="#2c2420"/><rect x="0" width="21" height="119" fill="#7a2020" opacity="0.5"/><rect x="21" width="21" height="119" fill="#c9a83f" opacity="0.5"/><rect x="42" width="28" height="119" fill="#7a2020" opacity="0.5"/><rect x="70" width="21" height="119" fill="#c9a83f" opacity="0.5"/><rect x="91" width="14" height="119" fill="#c9a83f" opacity="0.5"/><rect x="105" width="14" height="119" fill="#1f4a33" opacity="0.5"/><rect y="0" width="119" height="21" fill="#7a2020" opacity="0.5"/><rect y="21" width="119" height="21" fill="#c9a83f" opacity="0.5"/><rect y="42" width="119" height="28" fill="#7a2020" opacity="0.5"/><rect y="70" width="119" height="21" fill="#c9a83f" opacity="0.5"/><rect y="91" width="119" height="14" fill="#c9a83f" opacity="0.5"/><rect y="105" width="119" height="14" fill="#1f4a33" opacity="0.5"/><rect x="10" width="1" height="119" fill="#2c2420" opacity="0.3"/><rect y="10" width="119" height="1" fill="#2c2420" opacity="0.3"/><rect x="31" width="1" height="119" fill="#2c2420" opacity="0.3"/><rect y="31" width="119" height="1" fill="#2c2420" opacity="0.3"/><rect x="55.5" width="1" height="119" fill="#2c2420" opacity="0.3"/><rect y="55.5" width="119" height="1" fill="#2c2420" opacity="0.3"/><rect x="80" width="1" height="119" fill="#2c2420" opacity="0.3"/><rect y="80" width="119" height="1" fill="#2c2420" opacity="0.3"/><rect x="97.5" width="1" height="119" fill="#2c2420" opacity="0.3"/><rect y="97.5" width="119" height="1" fill="#2c2420" opacity="0.3"/><rect x="111.5" width="1" height="119" fill="#2c2420" opacity="0.3"/><rect y="111.5" width="119" height="1" fill="#2c2420" opacity="0.3"/></pattern></defs><rect width="119" height="119" fill="url(#p_fabric_tartan_sett)"/></svg>