<svg xmlns="http://www.w3.org/2000/svg" viewBox="0 0 1920 1080" role="img" aria-label="Jeremiah act 8 Ch.8 · Buy the Field background"><metadata>{&quot;story&quot;:&quot;Jeremiah&quot;,&quot;act&quot;:8,&quot;chapter&quot;:&quot;Ch.8 · Buy the Field&quot;,&quot;scene&quot;:&quot;B&quot;,&quot;layer&quot;:&quot;background&quot;,&quot;artDirection&quot;:&quot;In the besieged city Jeremiah buys a field at Anathoth and seals the deed, for the Lord promises houses and fields will again be bought. Stage: a walled city under siege at dusk, a deed being sealed and buried in an earthen jar, a field beyond the walls; a candle in a siege lamp.&quot;,&quot;materials&quot;:[&quot;assets/materials/wall_brick-herringbone.svg&quot;,&quot;assets/materials/stone-flagstone.svg&quot;,&quot;assets/materials/water_still-eddies.svg&quot;],&quot;seed&quot;:1}</metadata><defs><linearGradient id="stageSky" x2="0" y2="1"><stop stop-color="#32283b"/><stop offset="1" stop-color="#bc8157"/></linearGradient><radialGradient id="stageGlow"><stop stop-color="#e3ae66" stop-opacity=".24"/><stop offset="1" stop-color="#e3ae66" stop-opacity="0"/></radialGradient><pattern id="act-material" width="72" height="72" patternUnits="userSpaceOnUse"><path d="M0 0H72V72H0Z M0 24H72M0 48H72M24 0V24M50 24V48M24 48V72" fill="none" stroke="#705739" stroke-width="2" opacity=".52"/></pattern></defs><rect width="1920" height="1080" fill="url(#stageSky)"/><circle cx="1510" cy="245" r="72" fill="#e3ae66" opacity=".48"/><circle cx="336.8" cy="44.1" r="2.3" fill="#fff" opacity="0.73"/><circle cx="64.1" cy="31.6" r="2.0" fill="#fff" opacity="0.88"/><circle cx="274.6" cy="226.5" r="3.2" fill="#fff" opacity="0.38"/><circle cx="932.7" cy="392.7" r="3.3" fill="#fff" opacity="0.62"/><circle cx="1335.2" cy="447.4" r="2.3" fill="#fff" opacity="0.61"/><circle cx="212.6" cy="32.2" r="2.7" fill="#fff" opacity="0.62"/><circle cx="1427.5" cy="245.9" r="2.9" fill="#fff" opacity="0.38"/><circle cx="1495.5" cy="45.8" r="2.9" fill="#fff" opacity="0.45"/><circle cx="659.0" cy="173.3" r="1.1" fill="#fff" opacity="0.50"/><circle cx="899.4" cy="316.9" r="3.0" fill="#fff" opacity="0.59"/><circle cx="131.6" cy="224.9" r="2.0" fill="#fff" opacity="0.65"/><circle cx="1231.5" cy="133.7" r="4.0" fill="#fff" opacity="0.47"/><circle cx="565.3" cy="35.5" r="1.7" fill="#fff" opacity="0.81"/><circle cx="648.1" cy="383.6" r="1.7" fill="#fff" opacity="0.76"/><circle cx="901.0" cy="241.7" r="3.5" fill="#fff" opacity="0.78"/><circle cx="279.2" cy="371.3" r="1.8" fill="#fff" opacity="0.56"/><circle cx="247.5" cy="286.5" r="1.9" fill="#fff" opacity="0.64"/><circle cx="1670.5" cy="391.6" r="2.0" fill="#fff" opacity="0.74"/><circle cx="1012.4" cy="119.2" r="1.3" fill="#fff" opacity="0.51"/><circle cx="893.9" cy="150.6" r="3.1" fill="#fff" opacity="0.72"/><circle cx="651.4" cy="108.7" r="1.5" fill="#fff" opacity="0.81"/><circle cx="931.2" cy="94.5" r="2.0" fill="#fff" opacity="0.88"/><circle cx="1405.7" cy="49.6" r="2.1" fill="#fff" opacity="0.43"/><circle cx="1660.4" cy="441.9" r="3.3" fill="#fff" opacity="0.66"/><circle cx="1209.6" cy="37.2" r="2.1" fill="#fff" opacity="0.58"/><circle cx="909.7" cy="352.2" r="3.6" fill="#fff" opacity="0.56"/><circle cx="1341.1" cy="79.5" r="2.0" fill="#fff" opacity="0.86"/><circle cx="1632.0" cy="107.1" r="2.5" fill="#fff" opacity="0.88"/><circle cx="1187.3" cy="303.3" r="1.9" fill="#fff" opacity="0.50"/><circle cx="441.4" cy="92.7" r="2.3" fill="#fff" opacity="0.84"/><circle cx="1214.4" cy="235.1" r="3.3" fill="#fff" opacity="0.52"/><circle cx="505.4" cy="33.9" r="3.3" fill="#fff" opacity="0.78"/><g fill="#655955" stroke="#111015" stroke-width="10"><path d="M160 760V420H390V760Z"/><path d="M420 760V465H650V760Z"/><path d="M1430 760V420H1660V760Z"/><path d="M1690 760V465H1920V760Z"/></g><path d="M0 800Q430 720 900 800T1920 760V1080H0Z" fill="#302a2f"/><ellipse cx="960" cy="700" rx="930" ry="410" fill="url(#stageGlow)"/><path d="M0 970Q460 895 940 965T1920 930V1080H0Z" fill="url(#act-material)" opacity=".12"/><path d="M0 760H1920" stroke="#77644d" stroke-width="34"/><path d="M820 750V960" stroke="#111015" stroke-width="24"/><path d="M760 940Q820 830 880 940V1010H760Z" fill="#d29f5d" stroke="#111015" stroke-width="10"/></svg>
