<svg xmlns="http://www.w3.org/2000/svg" viewBox="0 0 1920 1080" role="img" aria-label="Jacob act 6 Ch.6 · The Flocks background"><metadata>{&quot;story&quot;:&quot;Jacob&quot;,&quot;act&quot;:6,&quot;chapter&quot;:&quot;Ch.6 · The Flocks&quot;,&quot;scene&quot;:&quot;B&quot;,&quot;layer&quot;:&quot;background&quot;,&quot;artDirection&quot;:&quot;Jacob breeds the flocks with peeled branches in the watering troughs, and the speckled and spotted increase. Stage: a river crossing with troughs, striped rods standing in the water, a great flock of goats, some dark, some speckled; morning light on a patient man&amp;#x27;s wealth.&quot;,&quot;materials&quot;:[&quot;assets/materials/wood_oak-planks3.svg&quot;,&quot;assets/materials/water_still-eddies.svg&quot;,&quot;assets/materials/grass-tufts.svg&quot;],&quot;seed&quot;:1}</metadata><defs><linearGradient id="stageSky" x2="0" y2="1"><stop stop-color="#7c9798"/><stop offset="1" stop-color="#e8d08f"/></linearGradient><radialGradient id="stageGlow"><stop stop-color="#d8b76e" stop-opacity=".24"/><stop offset="1" stop-color="#d8b76e" stop-opacity="0"/></radialGradient><pattern id="act-material" width="72" height="72" patternUnits="userSpaceOnUse"><path d="M0 13Q18 8 36 13T72 13M0 37Q18 32 36 37T72 37M0 61Q18 56 36 61T72 61" fill="none" stroke="#716442" stroke-width="2" opacity=".58"/><ellipse cx="38" cy="37" rx="8" ry="4" fill="none" stroke="#716442" opacity=".5"/></pattern></defs><rect width="1920" height="1080" fill="url(#stageSky)"/><circle cx="340" cy="245" r="72" fill="#d8b76e" opacity=".48"/><path d="M0 650Q460 550 890 660T1920 620V1080H0Z" fill="#5e7b78"/><path d="M0 755Q440 660 900 760T1920 715V1080H0Z" fill="#304e4f"/><path d="M0 760Q430 670 870 760T1920 720" fill="none" stroke="#b5d3ce" stroke-width="16" opacity=".75"/><ellipse cx="960" cy="700" rx="930" ry="410" fill="url(#stageGlow)"/><path d="M0 970Q460 895 940 965T1920 930V1080H0Z" fill="url(#act-material)" opacity=".12"/><path d="M520 870V700H1400V870" fill="none" stroke="#d8b76e" stroke-width="18"/><path d="M600 780Q960 650 1320 780" fill="none" stroke="#d8c18c" stroke-width="18"/></svg>
