<svg xmlns="http://www.w3.org/2000/svg" viewBox="0 0 1920 1080" role="img" aria-label="Jacob act 7 Ch.7 · Leaving Haran background"><metadata>{&quot;story&quot;:&quot;Jacob&quot;,&quot;act&quot;:7,&quot;chapter&quot;:&quot;Ch.7 · Leaving Haran&quot;,&quot;scene&quot;:&quot;B&quot;,&quot;layer&quot;:&quot;background&quot;,&quot;artDirection&quot;:&quot;Jacob flees Laban by night; Rachel hides the teraphim in a saddle and sits on them; the two camps meet on the hill of Gilead. Stage: a night crossing of a river, a caravan of tents and children, a woman hiding an idol; dawn overtaking a pursuit on a stony hill.&quot;,&quot;materials&quot;:[&quot;assets/materials/desert_sand-dunes.svg&quot;,&quot;assets/materials/wood_oak-planks3.svg&quot;,&quot;assets/materials/fabric_weave-basket.svg&quot;,&quot;assets/materials/water_still-eddies.svg&quot;],&quot;seed&quot;:1}</metadata><defs><linearGradient id="stageSky" x2="0" y2="1"><stop stop-color="#101728"/><stop offset="1" stop-color="#53617c"/></linearGradient><radialGradient id="stageGlow"><stop stop-color="#e3b567" stop-opacity=".24"/><stop offset="1" stop-color="#e3b567" stop-opacity="0"/></radialGradient><pattern id="act-material" width="72" height="72" patternUnits="userSpaceOnUse"><path d="M-5 20Q15 13 35 20T75 20M-5 50Q15 43 35 50T75 50" fill="none" stroke="#e9c17a" stroke-width="2" opacity=".45"/><circle cx="16" cy="35" r="1.4" fill="#e3b567"/><circle cx="55" cy="8" r="1.2" fill="#e3b567"/></pattern></defs><rect width="1920" height="1080" fill="url(#stageSky)"/><circle cx="1510" cy="245" r="72" fill="#e3b567" opacity=".48"/><circle cx="1398.5" cy="69.8" r="2.8" fill="#fff" opacity="0.41"/><circle cx="235.9" cy="234.2" r="3.8" fill="#fff" opacity="0.48"/><circle cx="1776.8" cy="255.4" r="1.5" fill="#fff" opacity="0.70"/><circle cx="1057.6" cy="445.0" r="2.2" fill="#fff" opacity="0.38"/><circle cx="1011.6" cy="229.5" r="1.4" fill="#fff" opacity="0.38"/><circle cx="981.7" cy="214.7" r="3.9" fill="#fff" opacity="0.56"/><circle cx="1816.2" cy="457.6" r="2.0" fill="#fff" opacity="0.59"/><circle cx="1820.6" cy="86.4" r="3.8" fill="#fff" opacity="0.40"/><circle cx="1278.9" cy="316.1" r="3.3" fill="#fff" opacity="0.88"/><circle cx="1021.2" cy="407.9" r="2.7" fill="#fff" opacity="0.88"/><circle cx="82.5" cy="416.3" r="3.6" fill="#fff" opacity="0.75"/><circle cx="430.1" cy="236.7" r="2.9" fill="#fff" opacity="0.65"/><circle cx="1483.9" cy="321.4" r="1.6" fill="#fff" opacity="0.57"/><circle cx="1579.3" cy="199.7" r="3.4" fill="#fff" opacity="0.42"/><circle cx="1055.9" cy="353.5" r="1.2" fill="#fff" opacity="0.70"/><circle cx="958.1" cy="113.3" r="4.0" fill="#fff" opacity="0.49"/><circle cx="1481.3" cy="433.3" r="2.0" fill="#fff" opacity="0.54"/><circle cx="1530.2" cy="456.3" r="1.2" fill="#fff" opacity="0.61"/><circle cx="586.9" cy="30.6" r="1.4" fill="#fff" opacity="0.69"/><circle cx="1126.1" cy="124.8" r="2.0" fill="#fff" opacity="0.72"/><circle cx="1401.0" cy="402.2" r="2.6" fill="#fff" opacity="0.50"/><circle cx="238.0" cy="317.4" r="1.5" fill="#fff" opacity="0.74"/><circle cx="369.5" cy="207.6" r="2.5" fill="#fff" opacity="0.56"/><circle cx="253.8" cy="316.6" r="1.7" fill="#fff" opacity="0.47"/><circle cx="409.4" cy="117.6" r="1.8" fill="#fff" opacity="0.59"/><circle cx="1662.2" cy="210.1" r="2.0" fill="#fff" opacity="0.40"/><circle cx="784.7" cy="208.8" r="1.1" fill="#fff" opacity="0.57"/><circle cx="579.5" cy="396.8" r="2.3" fill="#fff" opacity="0.81"/><circle cx="422.7" cy="294.1" r="3.4" fill="#fff" opacity="0.52"/><circle cx="1267.9" cy="81.7" r="3.1" fill="#fff" opacity="0.84"/><circle cx="1720.9" cy="223.4" r="3.1" fill="#fff" opacity="0.88"/><circle cx="1835.8" cy="355.3" r="2.8" fill="#fff" opacity="0.56"/><path d="M0 650Q460 550 890 660T1920 620V1080H0Z" fill="#495560"/><path d="M0 755Q440 660 900 760T1920 715V1080H0Z" fill="#25343c"/><path d="M0 760Q430 670 870 760T1920 720" fill="none" stroke="#b5d3ce" stroke-width="16" opacity=".75"/><ellipse cx="960" cy="700" rx="930" ry="410" fill="url(#stageGlow)"/><path d="M0 970Q460 895 940 965T1920 930V1080H0Z" fill="url(#act-material)" opacity=".12"/><g fill="#545458" stroke="#0b0f17" stroke-width="8"><path d="M180 780L275 600 370 780Z"/><path d="M520 780L615 600 710 780Z"/><path d="M1370 780L1465 600 1560 780Z"/><path d="M1680 780L1775 600 1870 780Z"/></g></svg>
